<svg viewBox="0 0 2069 1800" fill="none" xmlns="http://www.w3.org/2000/svg">
<g clip-path="url(#clip0_53_43)">
<path d="M1466.6 181.984C1461.17 172.604 1451.15 166.809 1440.32 166.809H628.749C617.895 166.809 607.876 172.604 602.473 181.984L464.69 420.619H1091.09C1099.46 420.619 1106.26 427.421 1106.26 435.795V570.165C1106.26 578.538 1099.46 585.34 1091.09 585.34H372.851V579.692L235.461 817.64H1091.06C1099.44 817.64 1106.24 824.441 1106.24 832.815V967.185C1106.24 975.559 1099.44 982.36 1091.06 982.36H235.461L372.851 1220.31V1214.66H1091.09C1099.46 1214.66 1106.26 1221.46 1106.26 1229.84V1364.21C1106.26 1372.58 1099.46 1379.38 1091.09 1379.38H464.69L602.473 1618.02C607.9 1627.4 617.92 1633.19 628.749 1633.19H1440.32C1451.15 1633.19 1461.2 1627.4 1466.6 1618.02L1872.39 915.176C1877.81 905.795 1877.81 894.205 1872.39 884.824L1466.6 181.984Z" fill="url(#paint0_linear_53_43)"/>
<path d="M1466.6 181.984C1461.17 172.604 1451.15 166.809 1440.32 166.809H628.749C617.895 166.809 607.876 172.604 602.473 181.984L464.69 420.619H1091.09C1099.46 420.619 1106.26 427.421 1106.26 435.795V570.165C1106.26 578.538 1099.46 585.34 1091.09 585.34H372.851V579.692L235.461 817.64H1091.06C1099.44 817.64 1106.24 824.441 1106.24 832.815V967.185C1106.24 975.559 1099.44 982.36 1091.06 982.36H235.461L372.851 1220.31V1214.66H1091.09C1099.46 1214.66 1106.26 1221.46 1106.26 1229.84V1364.21C1106.26 1372.58 1099.46 1379.38 1091.09 1379.38H464.69L602.473 1618.02C607.9 1627.4 617.92 1633.19 628.749 1633.19H1440.32C1451.15 1633.19 1461.2 1627.4 1466.6 1618.02L1872.39 915.176C1877.81 905.795 1877.81 894.205 1872.39 884.824L1466.6 181.984Z" fill="#111111"/>
<path d="M1466.6 181.984C1461.17 172.604 1451.15 166.809 1440.32 166.809H628.749C617.895 166.809 607.876 172.604 602.473 181.984L464.69 420.619H1091.09C1099.46 420.619 1106.26 427.421 1106.26 435.795V570.165C1106.26 578.538 1099.46 585.34 1091.09 585.34H372.851V579.692L235.461 817.64H1091.06C1099.44 817.64 1106.24 824.441 1106.24 832.815V967.185C1106.24 975.559 1099.44 982.36 1091.06 982.36H235.461L372.851 1220.31V1214.66H1091.09C1099.46 1214.66 1106.26 1221.46 1106.26 1229.84V1364.21C1106.26 1372.58 1099.46 1379.38 1091.09 1379.38H464.69L602.473 1618.02C607.9 1627.4 617.92 1633.19 628.749 1633.19H1440.32C1451.15 1633.19 1461.2 1627.4 1466.6 1618.02L1872.39 915.176C1877.81 905.795 1877.81 894.205 1872.39 884.824L1466.6 181.984Z" fill="url(#paint1_linear_53_43)"/>
<path d="M1466.6 181.984C1461.17 172.604 1451.15 166.809 1440.32 166.809H628.749C617.895 166.809 607.876 172.604 602.473 181.984L464.69 420.619H1091.09C1099.46 420.619 1106.26 427.421 1106.26 435.795V570.165C1106.26 578.538 1099.46 585.34 1091.09 585.34H372.851V579.692L235.461 817.64H1091.06C1099.44 817.64 1106.24 824.441 1106.24 832.815V967.185C1106.24 975.559 1099.44 982.36 1091.06 982.36H235.461L372.851 1220.31V1214.66H1091.09C1099.46 1214.66 1106.26 1221.46 1106.26 1229.84V1364.21C1106.26 1372.58 1099.46 1379.38 1091.09 1379.38H464.69L602.473 1618.02C607.9 1627.4 617.92 1633.19 628.749 1633.19H1440.32C1451.15 1633.19 1461.2 1627.4 1466.6 1618.02L1872.39 915.176C1877.81 905.795 1877.81 894.205 1872.39 884.824L1466.6 181.984Z" fill="url(#paint2_linear_53_43)"/>
<path d="M2065 884.824L1562.91 15.1754C1557.48 5.79504 1547.46 0 1536.63 0H532.441C521.612 0 511.568 5.79504 506.166 15.1754L4.07015 884.824C-1.35672 894.204 -1.35672 905.795 4.07015 915.175L506.166 1784.82C511.593 1794.2 521.612 1800 532.441 1800H1536.63C1547.49 1800 1557.5 1794.2 1562.91 1784.82L2065 915.175C2070.43 905.795 2070.43 894.204 2065 884.824ZM1977.53 915.175L1960 945.526L1536.71 1678.72L1519.17 1709.07C1513.75 1718.45 1503.73 1724.24 1492.9 1724.24H576.2C565.346 1724.24 555.327 1718.45 549.924 1709.07L532.392 1678.72L109.071 945.526L91.5387 915.175C86.1119 905.795 86.1119 894.204 91.5387 884.824L109.071 854.473L532.392 121.282L549.924 90.9307C555.351 81.5504 565.371 75.7547 576.2 75.7547H1492.9C1503.75 75.7547 1513.77 81.5504 1519.17 90.9307L1536.71 121.282L1960 854.473L1977.53 884.824C1982.96 894.204 1982.96 905.795 1977.53 915.175Z" fill="url(#paint3_linear_53_43)"/>
<path d="M2065 884.824L1562.91 15.1754C1557.48 5.79504 1547.46 0 1536.63 0H532.441C521.612 0 511.568 5.79504 506.166 15.1754L4.07015 884.824C-1.35672 894.204 -1.35672 905.795 4.07015 915.175L506.166 1784.82C511.593 1794.2 521.612 1800 532.441 1800H1536.63C1547.49 1800 1557.5 1794.2 1562.91 1784.82L2065 915.175C2070.43 905.795 2070.43 894.204 2065 884.824ZM1977.53 915.175L1960 945.526L1536.71 1678.72L1519.17 1709.07C1513.75 1718.45 1503.73 1724.24 1492.9 1724.24H576.2C565.346 1724.24 555.327 1718.45 549.924 1709.07L532.392 1678.72L109.071 945.526L91.5387 915.175C86.1119 905.795 86.1119 894.204 91.5387 884.824L109.071 854.473L532.392 121.282L549.924 90.9307C555.351 81.5504 565.371 75.7547 576.2 75.7547H1492.9C1503.75 75.7547 1513.77 81.5504 1519.17 90.9307L1536.71 121.282L1960 854.473L1977.53 884.824C1982.96 894.204 1982.96 905.795 1977.53 915.175Z" fill="#111111"/>
<path d="M2065 884.824L1562.91 15.1754C1557.48 5.79504 1547.46 0 1536.63 0H532.441C521.612 0 511.568 5.79504 506.166 15.1754L4.07015 884.824C-1.35672 894.204 -1.35672 905.795 4.07015 915.175L506.166 1784.82C511.593 1794.2 521.612 1800 532.441 1800H1536.63C1547.49 1800 1557.5 1794.2 1562.91 1784.82L2065 915.175C2070.43 905.795 2070.43 894.204 2065 884.824ZM1977.53 915.175L1960 945.526L1536.71 1678.72L1519.17 1709.07C1513.75 1718.45 1503.73 1724.24 1492.9 1724.24H576.2C565.346 1724.24 555.327 1718.45 549.924 1709.07L532.392 1678.72L109.071 945.526L91.5387 915.175C86.1119 905.795 86.1119 894.204 91.5387 884.824L109.071 854.473L532.392 121.282L549.924 90.9307C555.351 81.5504 565.371 75.7547 576.2 75.7547H1492.9C1503.75 75.7547 1513.77 81.5504 1519.17 90.9307L1536.71 121.282L1960 854.473L1977.53 884.824C1982.96 894.204 1982.96 905.795 1977.53 915.175Z" fill="url(#paint4_linear_53_43)"/>
<path d="M2065 884.824L1562.91 15.1754C1557.48 5.79504 1547.46 0 1536.63 0H532.441C521.612 0 511.568 5.79504 506.166 15.1754L4.07015 884.824C-1.35672 894.204 -1.35672 905.795 4.07015 915.175L506.166 1784.82C511.593 1794.2 521.612 1800 532.441 1800H1536.63C1547.49 1800 1557.5 1794.2 1562.91 1784.82L2065 915.175C2070.43 905.795 2070.43 894.204 2065 884.824ZM1977.53 915.175L1960 945.526L1536.71 1678.72L1519.17 1709.07C1513.75 1718.45 1503.73 1724.24 1492.9 1724.24H576.2C565.346 1724.24 555.327 1718.45 549.924 1709.07L532.392 1678.72L109.071 945.526L91.5387 915.175C86.1119 905.795 86.1119 894.204 91.5387 884.824L109.071 854.473L532.392 121.282L549.924 90.9307C555.351 81.5504 565.371 75.7547 576.2 75.7547H1492.9C1503.75 75.7547 1513.77 81.5504 1519.17 90.9307L1536.71 121.282L1960 854.473L1977.53 884.824C1982.96 894.204 1982.96 905.795 1977.53 915.175Z" fill="url(#paint5_linear_53_43)"/>
</g>
<defs>
<linearGradient id="paint0_linear_53_43" x1="268.408" y1="694.706" x2="1821.09" y2="1110.75" gradientUnits="userSpaceOnUse">
<stop stop-color="#2621A6"/>
<stop offset="1" stop-color="#0F7CBF"/>
</linearGradient>
<linearGradient id="paint1_linear_53_43" x1="268.408" y1="694.706" x2="1821.09" y2="1110.75" gradientUnits="userSpaceOnUse">
<stop stop-color="#534DF4"/>
<stop offset="1" stop-color="#2A9DE4"/>
</linearGradient>
<linearGradient id="paint2_linear_53_43" x1="268.408" y1="694.706" x2="1821.09" y2="1110.75" gradientUnits="userSpaceOnUse">
<stop stop-color="#2621A6"/>
<stop offset="1" stop-color="#0F7CBF"/>
</linearGradient>
<linearGradient id="paint3_linear_53_43" x1="41.5416" y1="648" x2="1992.07" y2="1184.85" gradientUnits="userSpaceOnUse">
<stop stop-color="#2621A6"/>
<stop offset="1" stop-color="#0F7CBF"/>
</linearGradient>
<linearGradient id="paint4_linear_53_43" x1="41.5416" y1="648" x2="1992.07" y2="1184.85" gradientUnits="userSpaceOnUse">
<stop stop-color="#534DF4"/>
<stop offset="1" stop-color="#2A9DE4"/>
</linearGradient>
<linearGradient id="paint5_linear_53_43" x1="41.5416" y1="648" x2="1992.07" y2="1184.85" gradientUnits="userSpaceOnUse">
<stop stop-color="#2621A6"/>
<stop offset="1" stop-color="#0F7CBF"/>
</linearGradient>
<clipPath id="clip0_53_43">
<rect width="2069" height="1800" fill="white"/>
</clipPath>
</defs>
</svg>
